<?xml version="1.0" standalone="no"?>
<!DOCTYPE svg PUBLIC "-//W3C//DTD SVG 20010904//EN"
 "http://www.w3.org/TR/2001/REC-SVG-20010904/DTD/svg10.dtd">
<svg version="1.0" xmlns="http://www.w3.org/2000/svg"
 width="200.000000pt" height="200.000000pt" viewBox="0 0 200.000000 200.000000"
 preserveAspectRatio="xMidYMid meet">
<metadata>
Created by potrace 1.14, written by Peter Selinger 2001-2017
</metadata>
<g transform="translate(0.000000,200.000000) scale(0.100000,-0.100000)"
fill="#000000" stroke="none">
<path d="M923 1889 c-18 -12 -33 -19 -33 -16 0 2 -169 -164 -375 -370 -206
-207 -375 -380 -375 -385 0 -5 -4 -6 -10 -3 -5 3 -10 -1 -10 -9 0 -9 -4 -16
-9 -16 -7 0 -19 -29 -25 -60 -1 -3 -5 -11 -10 -19 -7 -11 -6 -12 5 -6 12 8 12
6 0 -8 -9 -12 -10 -17 -2 -17 7 0 10 -4 7 -8 -3 -5 -1 -26 5 -46 8 -28 41 -69
126 -154 63 -65 124 -128 134 -141 11 -13 19 -21 19 -17 0 4 28 -21 62 -56 34
-35 61 -66 60 -70 -1 -5 2 -8 8 -8 5 0 35 -27 66 -60 32 -32 61 -57 66 -54 5
3 7 1 6 -4 -2 -5 39 -50 90 -101 50 -51 92 -96 92 -101 0 -6 7 -10 15 -10 8 0
15 -3 15 -7 0 -11 72 -59 82 -55 4 1 8 -2 8 -6 0 -14 91 -14 108 0 13 11 14
11 7 -1 -5 -9 3 -8 25 5 36 20 758 735 802 794 15 19 28 46 30 60 2 14 7 31
11 38 5 6 4 12 -1 12 -5 0 -9 8 -9 18 0 40 -4 53 -13 47 -5 -3 -7 0 -4 9 3 8
0 22 -8 30 -47 55 -329 332 -333 328 -3 -3 -5 2 -5 11 0 8 -9 19 -20 22 -11 3
-20 10 -20 14 0 11 -129 138 -135 133 -3 -3 -5 -1 -5 5 0 6 -27 37 -61 69 -34
33 -68 67 -78 78 -45 52 -140 135 -155 138 -13 1 -29 5 -36 8 -22 8 -60 9 -65
0 -3 -5 -12 -10 -18 -10 -7 0 -6 4 3 10 8 5 11 10 5 10 -5 0 -25 -10 -42 -21z"/>
</g>
</svg>
